<svg xmlns="http://www.w3.org/2000/svg" viewBox="0 0 300 300" fill="#000">
  <path d="m269.52,51.36l-86.98,144.53c-1.12,1.85-3.8,1.85-4.92,0l-26.8-44.55c-.5-.84-.5-1.89,0-2.72l56.89-94.53c1.09-1.82-.27-4.09-2.46-4.09h-113.79c-1.01,0-1.95.52-2.46,1.36l-56.89,94.53c-1.12,1.85-3.8,1.85-4.92,0L.38,101.35c-.5-.84-.5-1.89,0-2.72L58.92,1.36c.51-.84,1.44-1.36,2.46-1.36h177.24c1.01,0,1.95.52,2.46,1.36l28.44,47.28c.5.84.5,1.89,0,2.72Z" />
  <path d="m30.48,248.64L117.46,104.1c1.12-1.85,3.8-1.85,4.92,0l26.8,44.55c.5.84.5,1.89,0,2.72l-56.89,94.53c-1.09,1.82.27,4.09,2.46,4.09h113.79c1.01,0,1.95-.52,2.46-1.36l56.89-94.53c1.12-1.85,3.8-1.85,4.92,0l26.81,44.54c.5.84.5,1.89,0,2.72l-58.54,97.27c-.51.84-1.44,1.36-2.46,1.36H61.38c-1.01,0-1.95-.52-2.46-1.36l-28.44-47.28c-.5-.84-.5-1.89,0-2.72Z" />
</svg>